<svg width="18" height="18" viewBox="0 0 18 18" fill="none" xmlns="http://www.w3.org/2000/svg">
<g id="Icon/Special/Barbell">
<path id="Vector" d="M17.4375 8.4375H16.875V6.1875C16.875 5.88913 16.7565 5.60298 16.5455 5.392C16.3345 5.18103 16.0484 5.0625 15.75 5.0625H14.625V4.5C14.625 4.20163 14.5065 3.91548 14.2955 3.7045C14.0845 3.49353 13.7984 3.375 13.5 3.375H11.8125C11.5141 3.375 11.228 3.49353 11.017 3.7045C10.806 3.91548 10.6875 4.20163 10.6875 4.5V8.4375H7.3125V4.5C7.3125 4.20163 7.19397 3.91548 6.983 3.7045C6.77202 3.49353 6.48587 3.375 6.1875 3.375H4.5C4.20163 3.375 3.91548 3.49353 3.7045 3.7045C3.49353 3.91548 3.375 4.20163 3.375 4.5V5.0625H2.25C1.95163 5.0625 1.66548 5.18103 1.4545 5.392C1.24353 5.60298 1.125 5.88913 1.125 6.1875V8.4375H0.5625C0.413316 8.4375 0.270242 8.49676 0.164752 8.60225C0.0592632 8.70774 0 8.85082 0 9C0 9.14918 0.0592632 9.29226 0.164752 9.39775C0.270242 9.50324 0.413316 9.5625 0.5625 9.5625H1.125V11.8125C1.125 12.1109 1.24353 12.397 1.4545 12.608C1.66548 12.819 1.95163 12.9375 2.25 12.9375H3.375V13.5C3.375 13.7984 3.49353 14.0845 3.7045 14.2955C3.91548 14.5065 4.20163 14.625 4.5 14.625H6.1875C6.48587 14.625 6.77202 14.5065 6.983 14.2955C7.19397 14.0845 7.3125 13.7984 7.3125 13.5V9.5625H10.6875V13.5C10.6875 13.7984 10.806 14.0845 11.017 14.2955C11.228 14.5065 11.5141 14.625 11.8125 14.625H13.5C13.7984 14.625 14.0845 14.5065 14.2955 14.2955C14.5065 14.0845 14.625 13.7984 14.625 13.5V12.9375H15.75C16.0484 12.9375 16.3345 12.819 16.5455 12.608C16.7565 12.397 16.875 12.1109 16.875 11.8125V9.5625H17.4375C17.5867 9.5625 17.7298 9.50324 17.8352 9.39775C17.9407 9.29226 18 9.14918 18 9C18 8.85082 17.9407 8.70774 17.8352 8.60225C17.7298 8.49676 17.5867 8.4375 17.4375 8.4375ZM2.25 11.8125V6.1875H3.375V11.8125H2.25ZM6.1875 13.5H4.5V4.5H6.1875V13.5ZM13.5 13.5H11.8125V4.5H13.5V12.3623C13.5 12.3666 13.5 12.3708 13.5 12.375C13.5 12.3792 13.5 12.3834 13.5 12.3877V13.5ZM15.75 11.8125H14.625V6.1875H15.75V11.8125Z" fill="#212738"/>
</g>
</svg>
