<svg width="30" height="30" viewBox="0 0 30 30" fill="none" xmlns="http://www.w3.org/2000/svg">
<rect width="30" height="30" rx="15" fill="black"/>
<path fill-rule="evenodd" clip-rule="evenodd" d="M9.375 15C9.375 14.6893 9.58487 14.4375 9.84375 14.4375H20.1562C20.4151 14.4375 20.625 14.6893 20.625 15C20.625 15.3107 20.4151 15.5625 20.1562 15.5625H9.84375C9.58487 15.5625 9.375 15.3107 9.375 15Z" fill="white"/>
<path fill-rule="evenodd" clip-rule="evenodd" d="M15 9.375C15.3107 9.375 15.5625 9.58487 15.5625 9.84375V20.1562C15.5625 20.4151 15.3107 20.625 15 20.625C14.6893 20.625 14.4375 20.4151 14.4375 20.1562V9.84375C14.4375 9.58487 14.6893 9.375 15 9.375Z" fill="white"/>
</svg>
