<svg width="18" height="23" viewBox="0 0 18 23" fill="none" xmlns="http://www.w3.org/2000/svg">
<path d="M8.052 2.6356C8.93323 3.49338 9.61975 4.53058 10.0651 5.6769C10.5104 6.82322 10.7041 8.05188 10.633 9.2796C10.6287 9.65575 10.7593 10.021 11.0011 10.3092C11.2428 10.5974 11.5798 10.7894 11.951 10.8506C12.0329 10.8736 12.118 10.8831 12.203 10.8786C12.6156 10.881 13.0123 10.7201 13.3066 10.431C13.601 10.1419 13.769 9.74813 13.774 9.3356V9.1116C13.774 8.9996 13.774 8.74659 13.802 8.46659C13.8023 8.41146 13.8188 8.35762 13.8494 8.31178C13.88 8.26594 13.9235 8.23013 13.9743 8.20881C14.0252 8.18749 14.0812 8.1816 14.1354 8.19188C14.1895 8.20215 14.2395 8.22814 14.279 8.2666C15.7646 9.86093 16.6043 11.9506 16.635 14.1296C16.6029 15.0988 16.378 16.0519 15.9735 16.9332C15.569 17.8145 14.993 18.6064 14.279 19.2626C12.8332 20.6873 10.8945 21.5009 8.86501 21.5346C6.83822 21.4879 4.90411 20.6763 3.451 19.2626C2.73705 18.6064 2.161 17.8145 1.75648 16.9332C1.35197 16.0519 1.1271 15.0988 1.095 14.1296C1.095 11.2406 2.862 9.2206 4.405 7.4816C6.172 5.4896 7.09801 3.8626 7.26601 2.5446C7.2716 2.4953 7.29072 2.44851 7.32126 2.4094C7.35179 2.37029 7.39256 2.34039 7.43903 2.323C7.4855 2.30561 7.53586 2.30142 7.58456 2.31088C7.63327 2.32033 7.67843 2.34308 7.71501 2.3766L8.052 2.6356ZM6.341 0.279599C6.24656 0.277187 6.15308 0.299097 6.06955 0.343228C5.98602 0.387358 5.91523 0.452224 5.864 0.531597C5.752 0.731597 5.92 1.1486 6.116 1.6816C6.509 2.8876 5.303 4.8236 3.591 6.7586C1.991 8.5816 0 10.8256 0 14.1646C0 18.6526 4.236 22.7206 8.892 22.7206C13.548 22.7206 17.784 18.6536 17.784 14.1646C17.7642 12.7264 17.4329 11.3096 16.813 10.0118C16.1931 8.71391 15.2992 7.56584 14.193 6.6466L13.912 6.4226C13.7873 6.31458 13.628 6.25496 13.463 6.2546C13.3332 6.25363 13.2059 6.29022 13.0965 6.35995C12.987 6.42968 12.9 6.52957 12.846 6.6476C12.7433 7.47713 12.6872 8.31177 12.678 9.14759V9.3476C12.6788 9.40679 12.6678 9.46553 12.6455 9.52037C12.6232 9.57521 12.5901 9.62503 12.5483 9.66689C12.5064 9.70875 12.4566 9.74179 12.4018 9.76406C12.3469 9.78634 12.2882 9.7974 12.229 9.7966H12.145C12.0341 9.77556 11.934 9.71633 11.8622 9.62918C11.7904 9.54204 11.7514 9.43251 11.752 9.3196C11.724 5.9536 10.714 3.5976 8.80701 1.8296C8.1552 1.08181 7.29747 0.542692 6.341 0.279599Z" fill="black"/>
</svg>
