<svg width="23" height="23" viewBox="0 0 23 23" fill="none" xmlns="http://www.w3.org/2000/svg">
<path d="M11.0508 22.5C8.87519 22.5 6.74845 21.8549 4.93951 20.6462C3.13057 19.4375 1.72068 17.7195 0.888111 15.7095C0.0555474 13.6995 -0.162289 11.4878 0.262148 9.35401C0.686586 7.22022 1.73423 5.26021 3.27261 3.72183C4.81099 2.18345 6.771 1.1358 8.90479 0.711367C11.0386 0.286929 13.2503 0.504766 15.2603 1.33733C17.2703 2.16989 18.9883 3.57979 20.197 5.38873C21.4056 7.19767 22.0508 9.32441 22.0508 11.5C22.0476 14.4164 20.8877 17.2125 18.8255 19.2747C16.7632 21.3369 13.9672 22.4968 11.0508 22.5ZM11.0508 1.757C9.1238 1.757 7.24009 2.32842 5.63787 3.399C4.03564 4.46957 2.78685 5.99122 2.04943 7.77152C1.312 9.55182 1.11906 11.5108 1.495 13.4008C1.87093 15.2907 2.79886 17.0268 4.16144 18.3893C5.52403 19.7519 7.26006 20.6799 9.15002 21.0558C11.04 21.4317 12.999 21.2388 14.7793 20.5014C16.5596 19.7639 18.0812 18.5152 19.1518 16.9129C20.2224 15.3107 20.7938 13.427 20.7938 11.5C20.7909 8.91689 19.7634 6.44042 17.9369 4.61388C16.1104 2.78734 13.6339 1.75992 11.0508 1.757Z" fill="black"/>
<path d="M14.5909 17.1889C14.4971 17.1891 14.4041 17.1708 14.3175 17.1349C14.2308 17.099 14.1521 17.0463 14.0859 16.9799L10.2559 13.1499C10.1895 13.0836 10.1369 13.0049 10.1011 12.9182C10.0652 12.8315 10.0468 12.7387 10.0469 12.6449V4.54087C10.0469 4.35151 10.1221 4.1699 10.256 4.036C10.3899 3.9021 10.5715 3.82687 10.7609 3.82687C10.9502 3.82687 11.1318 3.9021 11.2657 4.036C11.3997 4.1699 11.4749 4.35151 11.4749 4.54087V12.3489L15.0959 15.9699C15.1955 16.0694 15.2634 16.1962 15.2912 16.3343C15.3189 16.4724 15.3052 16.6156 15.2517 16.7458C15.1983 16.8761 15.1075 16.9877 14.9908 17.0666C14.8741 17.1454 14.7367 17.1879 14.5959 17.1889H14.5909Z" fill="black"/>
</svg>
