<svg width="25" height="24" viewBox="0 0 25 24" fill="none" xmlns="http://www.w3.org/2000/svg">
<path d="M4.03691 8.15773C4.3319 7.42025 4.9238 6.84107 5.66752 6.56218L5.81227 6.5079C10.1242 4.89094 14.8758 4.89094 19.1877 6.5079L19.3325 6.56218C20.0762 6.84107 20.6681 7.42025 20.9631 8.15773V8.15773C21.9555 10.6386 22.0363 13.391 21.1914 15.9259L21.0451 16.3648C20.7056 17.3832 19.8693 18.1577 18.8278 18.4181L18.3567 18.5358C14.5114 19.4972 10.4886 19.4972 6.64333 18.5358L6.17223 18.4181C5.13071 18.1577 4.29441 17.3832 3.95492 16.3648L3.80863 15.9259C2.96366 13.391 3.04454 10.6386 4.03691 8.15773V8.15773Z" stroke="#111214" stroke-width="2" stroke-linejoin="round"/>
<path d="M4.5 7L7.86762 10.3676C8.28142 10.7814 8.79989 11.075 9.36762 11.2169V11.2169C11.4242 11.7311 13.5758 11.7311 15.6324 11.2169V11.2169C16.2001 11.075 16.7186 10.7814 17.1324 10.3676L20.5 7" stroke="#111214" stroke-width="2" stroke-linejoin="round"/>
</svg>
