<svg width="33" height="32" viewBox="0 0 33 32" fill="none" xmlns="http://www.w3.org/2000/svg">
<g clip-path="url(#clip0_125_5393)">
<path d="M27.8137 4.68631C24.7917 1.66431 20.7738 0 16.5 0C12.2262 0 8.20825 1.66431 5.18631 4.68631C2.16425 7.70825 0.5 11.7262 0.5 16C0.5 20.2738 2.16425 24.2917 5.18631 27.3137C8.20825 30.3357 12.2262 32 16.5 32C20.7738 32 24.7917 30.3357 27.8137 27.3137C30.8358 24.2917 32.5 20.2738 32.5 16C32.5 11.7262 30.8358 7.70825 27.8137 4.68631ZM16.5 30.0952C8.72787 30.0952 2.40475 23.7721 2.40475 16C2.40475 8.22787 8.72787 1.90475 16.5 1.90475C24.2721 1.90475 30.5952 8.22787 30.5952 16C30.5952 23.7721 24.2721 30.0952 16.5 30.0952Z" fill="black"/>
<path d="M13.0393 11.7748C11.4797 10.2151 8.94203 10.2152 7.38247 11.7748C7.01053 12.1466 7.01053 12.7497 7.38247 13.1216C7.75447 13.4935 8.35753 13.4935 8.72941 13.1216C9.54641 12.3047 10.8757 12.3048 11.6925 13.1216C11.8785 13.3076 12.1222 13.4006 12.3659 13.4006C12.6096 13.4006 12.8534 13.3076 13.0393 13.1216C13.4112 12.7497 13.4112 12.1467 13.0393 11.7748ZM25.6182 11.7748C24.0586 10.2152 21.5209 10.2151 19.9613 11.7748C19.5894 12.1466 19.5894 12.7497 19.9613 13.1216C20.3333 13.4935 20.9364 13.4935 21.3083 13.1216C22.1252 12.3047 23.4544 12.3046 24.2714 13.1216C24.4574 13.3076 24.7011 13.4006 24.9448 13.4006C25.1885 13.4006 25.4323 13.3076 25.6182 13.1216C25.9901 12.7497 25.9901 12.1467 25.6182 11.7748ZM24.9448 16.6984H8.05597C7.52997 16.6984 7.10359 17.1249 7.10359 17.6508C7.10359 22.8322 11.319 27.0476 16.5004 27.0476C21.6818 27.0476 25.8972 22.8322 25.8972 17.6508C25.8972 17.1248 25.4708 16.6984 24.9448 16.6984ZM16.5004 25.1429C12.6918 25.1429 9.53778 22.2864 9.06859 18.6032H23.9323C23.463 22.2864 20.309 25.1429 16.5004 25.1429Z" fill="black"/>
</g>
<defs>
<clipPath id="clip0_125_5393">
<rect width="32" height="32" fill="white" transform="translate(0.5)"/>
</clipPath>
</defs>
</svg>
