<svg width="32" height="32" viewBox="0 0 32 32" fill="none" xmlns="http://www.w3.org/2000/svg">
<circle cx="16" cy="16" r="15.65" stroke="#E7E7E7" stroke-width="0.7"/>
<g clip-path="url(#clip0_622_2372)">
<path d="M17.3812 10.59C17.878 10.0517 18.1264 9.78261 18.3903 9.62563C19.0272 9.24685 19.8114 9.23507 20.459 9.59455C20.7273 9.74354 20.9833 10.0051 21.4954 10.5282C22.0074 11.0513 22.2635 11.3128 22.4093 11.587C22.7612 12.2484 22.7497 13.0495 22.3789 13.7001C22.2252 13.9698 21.9618 14.2235 21.4349 14.731L15.1658 20.7692C14.1673 21.7309 13.668 22.2118 13.0441 22.4555C12.4201 22.6992 11.7342 22.6813 10.3623 22.6454L10.1756 22.6405C9.75797 22.6296 9.54915 22.6241 9.42776 22.4863C9.30637 22.3486 9.32294 22.1359 9.35609 21.7105L9.37409 21.4795C9.46737 20.282 9.51401 19.6833 9.74784 19.1451C9.98166 18.6069 10.385 18.17 11.1917 17.296L17.3812 10.59Z" stroke="black" stroke-linejoin="round"/>
<path d="M16.668 10.667L21.3346 15.3337" stroke="black" stroke-linejoin="round"/>
<path opacity="0.4" d="M17.332 22.667H22.6654" stroke="black" stroke-linecap="round" stroke-linejoin="round"/>
</g>
<defs>
<clipPath id="clip0_622_2372">
<rect width="16" height="16" fill="white" transform="translate(8 8)"/>
</clipPath>
</defs>
</svg>
