<svg width="41" height="40" viewBox="0 0 41 40" fill="none" xmlns="http://www.w3.org/2000/svg">
<path d="M20.5 17.5V27.5M25.5 22.5H15.5M22.2667 10.5167L18.7333 6.98333C18.5012 6.75092 18.2256 6.56653 17.9221 6.4407C17.6187 6.31487 17.2935 6.25007 16.965 6.25H8C7.00544 6.25 6.05161 6.64509 5.34835 7.34835C4.64509 8.05161 4.25 9.00544 4.25 10V30C4.25 30.9946 4.64509 31.9484 5.34835 32.6516C6.05161 33.3549 7.00544 33.75 8 33.75H33C33.9946 33.75 34.9484 33.3549 35.6516 32.6516C36.3549 31.9484 36.75 30.9946 36.75 30V15C36.75 14.0054 36.3549 13.0516 35.6516 12.3483C34.9484 11.6451 33.9946 11.25 33 11.25H24.035C23.3722 11.2494 22.7351 10.9856 22.2667 10.5167Z" stroke="black" stroke-width="1.5" stroke-linecap="round" stroke-linejoin="round"/>
</svg>
