<svg width="16" height="16" viewBox="0 0 16 16" fill="none" xmlns="http://www.w3.org/2000/svg">
<path d="M11.4931 9.58375C11.3635 10.3079 11.0151 10.975 10.4948 11.4952C9.9745 12.0154 9.30734 12.3636 8.58313 12.4931C8.55563 12.4975 8.52784 12.4998 8.5 12.5C8.37458 12.5 8.25375 12.4528 8.16148 12.3679C8.06921 12.2829 8.01223 12.1664 8.00185 12.0414C7.99146 11.9164 8.02843 11.7921 8.10542 11.6931C8.18242 11.5941 8.2938 11.5276 8.4175 11.5069C9.45312 11.3325 10.3319 10.4538 10.5075 9.41625C10.5297 9.28547 10.603 9.16887 10.7112 9.09209C10.8193 9.01532 10.9536 8.98467 11.0844 9.00688C11.2152 9.02909 11.3318 9.10235 11.4085 9.21053C11.4853 9.31872 11.516 9.45297 11.4937 9.58375H11.4931ZM13.5 9.00001C13.5 10.4587 12.9205 11.8576 11.8891 12.8891C10.8576 13.9205 9.45869 14.5 8 14.5C6.54131 14.5 5.14236 13.9205 4.11091 12.8891C3.07946 11.8576 2.5 10.4587 2.5 9.00001C2.5 7.25501 3.1875 5.47063 4.54125 3.69688C4.5841 3.64072 4.63837 3.59427 4.70047 3.5606C4.76258 3.52693 4.83112 3.50681 4.90157 3.50155C4.97201 3.4963 5.04278 3.50603 5.10919 3.53011C5.17561 3.55419 5.23616 3.59207 5.28687 3.64126L6.79437 5.10438L8.16938 1.32876C8.19685 1.25345 8.24202 1.18586 8.30108 1.13167C8.36015 1.07748 8.43138 1.03829 8.50877 1.01739C8.58615 0.996497 8.66743 0.994516 8.74574 1.01161C8.82406 1.02871 8.89711 1.06439 8.95875 1.11563C10.3256 2.25001 13.5 5.28438 13.5 9.00001ZM12.5 9.00001C12.5 6.11938 10.2631 3.63001 8.86187 2.35438L7.47 6.17126C7.44143 6.24965 7.3937 6.31965 7.33116 6.37487C7.26861 6.4301 7.19324 6.46879 7.11191 6.48743C7.03059 6.50607 6.94589 6.50406 6.86553 6.48159C6.78518 6.45911 6.71173 6.41688 6.65188 6.35876L5.00375 4.76001C4.00562 6.20063 3.5 7.62501 3.5 9.00001C3.5 10.1935 3.97411 11.3381 4.81802 12.182C5.66193 13.0259 6.80653 13.5 8 13.5C9.19347 13.5 10.3381 13.0259 11.182 12.182C12.0259 11.3381 12.5 10.1935 12.5 9.00001Z" fill="#212738"/>
</svg>
