<svg width="25" height="24" viewBox="0 0 25 24" fill="none" xmlns="http://www.w3.org/2000/svg">
<g id="Frame">
<path id="Vector" d="M22.1992 12C22.1992 6.47715 17.722 2 12.1992 2C6.67637 2 2.19922 6.47715 2.19922 12C2.19922 17.5228 6.67637 22 12.1992 22C17.722 22 22.1992 17.5228 22.1992 12Z" stroke="#919191" stroke-width="1.5"/>
<path id="Vector_2" d="M18.1992 12C18.1992 15.3137 15.5129 18 12.1992 18C8.88551 18 6.19922 15.3137 6.19922 12C6.19922 8.68629 8.88551 6 12.1992 6C13.1393 6 14.0288 6.21619 14.8209 6.60156C15.5338 6.94843 15.8903 7.12186 15.9756 7.63009C16.0609 8.13832 15.7165 8.48274 15.0276 9.17157L12.1992 12" stroke="#919191" stroke-width="1.5" stroke-linecap="round" stroke-linejoin="round"/>
</g>
</svg>
