<svg width="18" height="18" viewBox="0 0 18 18" fill="none" xmlns="http://www.w3.org/2000/svg">
<g id="Icon/Special/Heartbeat">
<path id="Vector" d="M5.0625 10.125H2.25C2.10082 10.125 1.95774 10.0657 1.85225 9.96025C1.74676 9.85476 1.6875 9.71168 1.6875 9.5625C1.6875 9.41331 1.74676 9.27024 1.85225 9.16475C1.95774 9.05926 2.10082 9 2.25 9H4.76156L5.71922 7.56281C5.77057 7.48566 5.84018 7.42238 5.92188 7.37862C6.00357 7.33485 6.09482 7.31195 6.1875 7.31195C6.28018 7.31195 6.37143 7.33485 6.45312 7.37862C6.53482 7.42238 6.60443 7.48566 6.65578 7.56281L8.4375 10.2347L9.09422 9.25031C9.14563 9.17326 9.21527 9.11009 9.29696 9.06642C9.37866 9.02276 9.46987 8.99994 9.5625 9H11.25C11.3992 9 11.5423 9.05926 11.6477 9.16475C11.7532 9.27024 11.8125 9.41331 11.8125 9.5625C11.8125 9.71168 11.7532 9.85476 11.6477 9.96025C11.5423 10.0657 11.3992 10.125 11.25 10.125H9.86344L8.90578 11.5622C8.85443 11.6393 8.78482 11.7026 8.70312 11.7464C8.62143 11.7901 8.53018 11.813 8.4375 11.813C8.34482 11.813 8.25357 11.7901 8.17188 11.7464C8.09018 11.7026 8.02057 11.6393 7.96922 11.5622L6.1875 8.88891L5.53078 9.87328C5.47953 9.9506 5.40996 10.014 5.32826 10.058C5.24655 10.1019 5.15526 10.1249 5.0625 10.125ZM12.5156 2.8125C11.0637 2.8125 9.79242 3.43687 9 4.49227C8.20758 3.43687 6.93633 2.8125 5.48438 2.8125C4.3286 2.8138 3.22053 3.27351 2.40327 4.09077C1.58601 4.90803 1.1263 6.0161 1.125 7.17187C1.125 7.22461 1.125 7.27734 1.125 7.33008C1.12966 7.47926 1.1934 7.62048 1.30218 7.72268C1.41097 7.82487 1.55589 7.87966 1.70508 7.875C1.85426 7.87034 1.99548 7.8066 2.09768 7.69782C2.19987 7.58903 2.25466 7.44411 2.25 7.29492C2.25 7.25414 2.25 7.21266 2.25 7.17187C2.25112 6.31441 2.59224 5.49238 3.19856 4.88606C3.80488 4.27974 4.62691 3.93862 5.48438 3.9375C6.85195 3.9375 8.00016 4.66594 8.47969 5.83594C8.52207 5.93911 8.59416 6.02735 8.6868 6.08945C8.77945 6.15155 8.88847 6.18471 9 6.18471C9.11153 6.18471 9.22055 6.15155 9.3132 6.08945C9.40584 6.02735 9.47793 5.93911 9.52031 5.83594C9.99984 4.66383 11.148 3.9375 12.5156 3.9375C13.3731 3.93862 14.1951 4.27974 14.8014 4.88606C15.4078 5.49238 15.7489 6.31441 15.75 7.17187C15.75 10.9413 10.2825 14.3543 9 15.1031C8.23852 14.6595 6.00258 13.275 4.31156 11.4321C4.26161 11.3776 4.20141 11.3335 4.13442 11.3023C4.06742 11.2711 3.99493 11.2534 3.92108 11.2502C3.84724 11.247 3.77349 11.2584 3.70404 11.2837C3.63459 11.309 3.57081 11.3477 3.51633 11.3977C3.46185 11.4476 3.41774 11.5078 3.38653 11.5748C3.35531 11.6418 3.3376 11.7143 3.3344 11.7881C3.3312 11.862 3.34258 11.9357 3.36788 12.0052C3.39319 12.0746 3.43192 12.1384 3.48187 12.1929C5.67352 14.5835 8.60977 16.1782 8.73352 16.245C8.81543 16.2891 8.90699 16.3121 9 16.3121C9.09301 16.3121 9.18457 16.2891 9.26648 16.245C9.57726 16.0777 16.875 12.0937 16.875 7.17187C16.8737 6.0161 16.414 4.90803 15.5967 4.09077C14.7795 3.27351 13.6714 2.8138 12.5156 2.8125Z" fill="#212738"/>
</g>
</svg>
