<svg width="25" height="24" viewBox="0 0 25 24" fill="none" xmlns="http://www.w3.org/2000/svg">
<path d="M7.60202 9.39942L7.00233 9.57076C6.0547 9.84151 5.28575 10.5356 4.91972 11.4507C4.00834 13.7291 4.00834 16.2709 4.91972 18.5493C5.28575 19.4644 6.0547 20.1585 7.00233 20.4292L7.60202 20.6006C10.8033 21.5152 14.1967 21.5152 17.398 20.6006L17.9977 20.4292C18.9453 20.1585 19.7143 19.4644 20.0803 18.5493C20.9917 16.2709 20.9917 13.7291 20.0803 11.4507C19.7143 10.5356 18.9453 9.84151 17.9977 9.57076L17.398 9.39942C14.1967 8.48477 10.8033 8.48477 7.60202 9.39942Z" stroke="#111214" stroke-width="2" stroke-linejoin="round"/>
<path d="M12.5 13L12.5 17" stroke="#111214" stroke-width="2" stroke-linejoin="round"/>
<path d="M9.5 9V5.32456C9.5 4.53354 10.0062 3.83128 10.7566 3.58114V3.58114C11.8883 3.20392 13.1117 3.20392 14.2434 3.58114V3.58114C14.9938 3.83128 15.5 4.53354 15.5 5.32456V9" stroke="#111214" stroke-width="2" stroke-linejoin="round"/>
</svg>
