<svg width="25" height="24" viewBox="0 0 25 24" fill="none" xmlns="http://www.w3.org/2000/svg">
<g id="Frame">
<path id="Vector" d="M18.7998 12C18.7998 10.6193 17.6805 9.5 16.2998 9.5C14.9191 9.5 13.7998 10.6193 13.7998 12" stroke="#919191" stroke-width="1.5" stroke-linecap="round"/>
<path id="Vector_2" d="M6.7998 3V12M9.2998 2.5V7.5M11.7998 2V7.5" stroke="#919191" stroke-width="1.5" stroke-linecap="round" stroke-linejoin="round"/>
<path id="Vector_3" opacity="0.4" d="M4.7998 4.5L6.7998 4.1875M20.7998 2L14.2998 3.01562M4.7998 7L6.7998 6.875M20.7998 6L14.2998 6.40625" stroke="#919191" stroke-width="1.5" stroke-linecap="round" stroke-linejoin="round"/>
<path id="Vector_4" d="M5.71125 12H19.8884C21.4912 12 22.0784 12.3707 21.6785 13.9821C20.9731 16.8246 18.9757 17.5306 17.1302 19.3859C16.6817 19.8369 17.3796 20.5032 17.38 20.9992C17.3807 21.933 16.4926 22 15.7852 22H9.8144C9.10697 22 8.21888 21.933 8.21962 20.9992C8.22 20.5137 8.897 19.8159 8.46937 19.3859C6.62387 17.5306 4.62654 16.8246 3.92108 13.9821C3.52116 12.3707 4.10837 12 5.71125 12Z" stroke="#919191" stroke-width="1.5" stroke-linejoin="round"/>
</g>
</svg>
