<svg width="32" height="32" viewBox="0 0 32 32" fill="none" xmlns="http://www.w3.org/2000/svg">
<g clip-path="url(#clip0_125_5412)">
<path d="M16 0C7.17756 0 0 7.17756 0 16C0 24.8224 7.17756 32 16 32C24.8224 32 32 24.8224 32 16C32 7.17756 24.8224 0 16 0ZM16 30C8.28037 30 2 23.7196 2 16C2 8.28037 8.28037 2 16 2C23.7196 2 30 8.28037 30 16C30 23.7196 23.7196 30 16 30ZM24.4285 20.875C22.6802 23.9028 19.5294 25.7105 16.0002 25.7106C12.4709 25.7106 9.32 23.9029 7.57156 20.875C7.29537 20.3967 7.45919 19.7851 7.93744 19.509C8.41581 19.2328 9.02737 19.3967 9.30344 19.8749C10.6904 22.2767 13.1939 23.7106 16.0002 23.7106C18.8064 23.7105 21.3097 22.2766 22.6965 19.8749C22.9726 19.3966 23.5842 19.2327 24.0625 19.5089C24.5408 19.7851 24.7046 20.3967 24.4285 20.875ZM7.41738 12.0589C7.41738 10.9557 8.31494 10.0581 9.41825 10.0581C10.5216 10.0581 11.4191 10.9556 11.4191 12.0589C11.4191 13.1622 10.5216 14.0598 9.41825 14.0598C8.31494 14.0598 7.41738 13.1622 7.41738 12.0589ZM24.5827 12.0589C24.5827 13.1622 23.6851 14.0598 22.5818 14.0598C21.4785 14.0598 20.5809 13.1622 20.5809 12.0589C20.5809 10.9556 21.4785 10.0581 22.5818 10.0581C23.6851 10.0581 24.5827 10.9557 24.5827 12.0589Z" fill="#192126"/>
</g>
<defs>
<clipPath id="clip0_125_5412">
<rect width="32" height="32" fill="white"/>
</clipPath>
</defs>
</svg>
