<svg width="20" height="20" viewBox="0 0 20 20" fill="none" xmlns="http://www.w3.org/2000/svg">
<path fill-rule="evenodd" clip-rule="evenodd" d="M10.0347 3.12499C7.31452 3.11023 5.01159 5.42978 5.01538 8.12412L5.01538 8.125L5.01538 8.75C5.01538 11.6348 4.41051 13.3721 3.83008 14.375H16.1694C15.589 13.3721 14.9841 11.6348 14.9841 8.75V8.19531C14.9841 5.42593 12.7736 3.14607 10.0347 3.12499ZM3.76538 8.12544C3.76086 4.74169 6.62387 1.85599 10.0423 1.87501L10.0436 1.87502C13.4919 1.90114 16.2341 4.76177 16.2341 8.19531V8.75C16.2341 11.4583 16.8009 12.9709 17.2516 13.7494L17.252 13.75C17.3615 13.9397 17.4192 14.1548 17.4194 14.3739C17.4196 14.5929 17.3622 14.8082 17.2531 14.9981C17.1439 15.188 16.9867 15.3459 16.7973 15.4559C16.6079 15.5659 16.3929 15.6242 16.1738 15.625L16.1716 15.625H3.82788L3.82568 15.625C3.60663 15.6242 3.39163 15.5659 3.20222 15.4559C3.01281 15.3459 2.85563 15.188 2.74645 14.9981C2.63726 14.8082 2.57988 14.5929 2.58008 14.3739C2.58027 14.1548 2.63802 13.9397 2.74755 13.75L2.74792 13.7494C3.19862 12.9709 3.76538 11.4583 3.76538 8.75V8.12544Z" fill="white"/>
<path fill-rule="evenodd" clip-rule="evenodd" d="M7.49975 14.375C7.84493 14.375 8.12475 14.6548 8.12475 15V15.625C8.12475 16.1223 8.3223 16.5992 8.67393 16.9508C9.02556 17.3025 9.50247 17.5 9.99975 17.5C10.497 17.5 10.9739 17.3025 11.3256 16.9508C11.6772 16.5992 11.8748 16.1223 11.8748 15.625V15C11.8748 14.6548 12.1546 14.375 12.4998 14.375C12.8449 14.375 13.1248 14.6548 13.1248 15V15.625C13.1248 16.4538 12.7955 17.2487 12.2095 17.8347C11.6234 18.4208 10.8286 18.75 9.99975 18.75C9.17095 18.75 8.37609 18.4208 7.79004 17.8347C7.20399 17.2487 6.87475 16.4538 6.87475 15.625V15C6.87475 14.6548 7.15457 14.375 7.49975 14.375Z" fill="white"/>
</svg>
