<?xml version="1.0" encoding="UTF-8"?>
<svg width="24px" height="24px" viewBox="0 0 24 24" version="1.1" xmlns="http://www.w3.org/2000/svg">
    <path d="M12,4C13.1,4 14,4.9 14,6C14,7.1 13.1,8 12,8C10.9,8 10,7.1 10,6C10,4.9 10.9,4 12,4M12,14C14.7,14 17.8,15.29 18,16V17H6V16.04C6.17,15.29 9.3,14 12,14M12,2C9.79,2 8,3.79 8,6C8,8.21 9.79,10 12,10C14.21,10 16,8.21 16,6C16,3.79 14.21,2 12,2M12,12C9.33,12 6,13.33 6,16V20H18V16C18,13.33 14.67,12 12,12Z" fill="currentColor"/>
    <path d="M12,8C13.1,8 14,7.1 14,6C14,4.9 13.1,4 12,4C10.9,4 10,4.9 10,6C10,7.1 10.9,8 12,8M12,10C9.79,10 8,8.21 8,6C8,3.79 9.79,2 12,2C14.21,2 16,3.79 16,6C16,8.21 14.21,10 12,10M12,12C14.67,12 18,13.33 18,16V20H6V16C6,13.33 9.33,12 12,12M12,14C9.3,14 6.17,15.29 6,16.04V17H18V16C17.8,15.29 14.7,14 12,14Z" fill="currentColor"/>
</svg> 