<svg width="18" height="18" viewBox="0 0 18 18" fill="none" xmlns="http://www.w3.org/2000/svg">
<g id="Icon/Special/PersonSimpleTaiChi">
<path id="Vector" d="M9 5.625C9.44501 5.625 9.88002 5.49304 10.25 5.24581C10.62 4.99857 10.9084 4.64717 11.0787 4.23604C11.249 3.8249 11.2936 3.3725 11.2068 2.93605C11.12 2.49959 10.9057 2.09868 10.591 1.78401C10.2763 1.46934 9.87541 1.25505 9.43895 1.16823C9.0025 1.08142 8.5501 1.12597 8.13896 1.29627C7.72783 1.46657 7.37643 1.75496 7.12919 2.12497C6.88196 2.49498 6.75 2.92999 6.75 3.375C6.75 3.97174 6.98705 4.54403 7.40901 4.96599C7.83097 5.38795 8.40326 5.625 9 5.625ZM9 2.25C9.2225 2.25 9.44001 2.31598 9.62502 2.4396C9.81002 2.56321 9.95422 2.73892 10.0394 2.94448C10.1245 3.15005 10.1468 3.37625 10.1034 3.59448C10.06 3.81271 9.95283 4.01316 9.7955 4.1705C9.63816 4.32783 9.43771 4.43498 9.21948 4.47838C9.00125 4.52179 8.77505 4.49951 8.56948 4.41437C8.36391 4.32922 8.18821 4.18502 8.0646 4.00002C7.94098 3.81501 7.875 3.59751 7.875 3.375C7.875 3.07663 7.99353 2.79048 8.2045 2.57951C8.41548 2.36853 8.70163 2.25 9 2.25ZM15.75 7.3125C15.75 7.46169 15.6907 7.60476 15.5852 7.71025C15.4798 7.81574 15.3367 7.875 15.1875 7.875H9.5625V9.75375L13.159 11.2957C13.2601 11.339 13.3464 11.4111 13.407 11.503C13.4676 11.5948 13.4999 11.7024 13.5 11.8125V15.1875C13.5 15.3367 13.4407 15.4798 13.3352 15.5852C13.2298 15.6907 13.0867 15.75 12.9375 15.75C12.7883 15.75 12.6452 15.6907 12.5398 15.5852C12.4343 15.4798 12.375 15.3367 12.375 15.1875V12.1838L9.10898 10.7838L3.75117 15.6094C3.64022 15.7091 3.49417 15.7607 3.34517 15.7528C3.19617 15.7449 3.05641 15.6781 2.95664 15.5672C2.85687 15.4562 2.80527 15.3102 2.81318 15.1612C2.82109 15.0122 2.88787 14.8724 2.99883 14.7727L8.4375 9.87469V7.875H2.8125C2.66332 7.875 2.52024 7.81574 2.41475 7.71025C2.30926 7.60476 2.25 7.46169 2.25 7.3125C2.25 7.16332 2.30926 7.02024 2.41475 6.91475C2.52024 6.80926 2.66332 6.75 2.8125 6.75H15.1875C15.3367 6.75 15.4798 6.80926 15.5852 6.91475C15.6907 7.02024 15.75 7.16332 15.75 7.3125Z" fill="#212738"/>
</g>
</svg>
