<svg width="18" height="18" viewBox="0 0 18 18" fill="none" xmlns="http://www.w3.org/2000/svg">
<g id="Icon/Special/PersonArmsSpread">
<path id="Vector" d="M11.25 2.8125C11.25 2.36749 11.1181 1.93248 10.8709 1.56247C10.6236 1.19246 10.2722 0.904069 9.86108 0.733772C9.44995 0.563475 8.99755 0.518917 8.56109 0.605734C8.12463 0.692551 7.72372 0.906843 7.40905 1.22151C7.09439 1.53618 6.88009 1.93709 6.79328 2.37355C6.70646 2.81001 6.75102 3.2624 6.92131 3.67354C7.09161 4.08467 7.38 4.43607 7.75001 4.68331C8.12002 4.93054 8.55504 5.0625 9.00004 5.0625C9.59678 5.0625 10.1691 4.82545 10.591 4.40349C11.013 3.98153 11.25 3.40924 11.25 2.8125ZM9.00004 3.9375C8.77754 3.9375 8.56003 3.87152 8.37503 3.7479C8.19002 3.62429 8.04583 3.44859 7.96068 3.24302C7.87553 3.03745 7.85325 2.81125 7.89666 2.59302C7.94007 2.3748 8.04721 2.17434 8.20455 2.01701C8.36188 1.85967 8.56234 1.75253 8.78057 1.70912C8.9988 1.66571 9.225 1.68799 9.43056 1.77314C9.63613 1.85829 9.81183 2.00248 9.93545 2.18748C10.0591 2.37249 10.125 2.59 10.125 2.8125C10.125 3.11087 10.0065 3.39702 9.79554 3.608C9.58456 3.81897 9.29841 3.9375 9.00004 3.9375ZM16.2774 6.16711C16.2134 5.85208 16.0413 5.56931 15.791 5.36763C15.5406 5.16595 15.2277 5.05803 14.9063 5.0625H3.09379C2.77323 5.06249 2.46228 5.17201 2.21247 5.3729C1.96266 5.5738 1.78899 5.85402 1.72023 6.16712C1.65147 6.48023 1.69175 6.80743 1.8344 7.09451C1.97705 7.38159 2.2135 7.61132 2.50457 7.74563H2.51372L6.08208 9.31711L4.60551 14.9224C4.45101 15.2627 4.43804 15.6505 4.56944 16.0004C4.70084 16.3503 4.96585 16.6337 5.30618 16.7882C5.6465 16.9427 6.03427 16.9556 6.38416 16.8242C6.73405 16.6928 7.01742 16.4278 7.17192 16.0875L9.00004 12.9326L10.8282 16.0875C10.9906 16.4133 11.2731 16.6634 11.6162 16.7852C11.9593 16.907 12.3363 16.891 12.6678 16.7405C12.9994 16.5901 13.2596 16.3169 13.3938 15.9785C13.5281 15.64 13.5258 15.2627 13.3875 14.9259L11.911 9.32063L15.4793 7.74914H15.4885C15.7842 7.61933 16.0251 7.38995 16.1693 7.10091C16.3134 6.81186 16.3517 6.48144 16.2774 6.16711ZM15.0258 6.72258L11.0229 8.48461C10.9004 8.53861 10.8011 8.63455 10.743 8.75519C10.6849 8.87583 10.6717 9.01325 10.7058 9.14274L12.3139 15.2578C12.3221 15.2906 12.3336 15.3224 12.3483 15.3527C12.3719 15.4032 12.38 15.4595 12.3715 15.5146C12.3631 15.5696 12.3385 15.621 12.3008 15.662C12.2631 15.703 12.2141 15.732 12.16 15.7452C12.1059 15.7583 12.0491 15.7551 11.9968 15.7359C11.9268 15.7103 11.8699 15.6579 11.8386 15.5904C11.8314 15.5752 11.8235 15.5604 11.8147 15.5461L9.48661 11.5313C9.43716 11.446 9.36619 11.3753 9.28079 11.3261C9.1954 11.2769 9.09859 11.251 9.00004 11.251C8.9015 11.251 8.80468 11.2769 8.71929 11.3261C8.6339 11.3753 8.56293 11.446 8.51348 11.5313L6.18754 15.5426C6.17874 15.5569 6.17076 15.5717 6.16364 15.5869C6.13226 15.6544 6.07536 15.7068 6.00543 15.7324C5.95313 15.7516 5.89631 15.7548 5.84219 15.7416C5.78806 15.7285 5.73906 15.6995 5.7014 15.6585C5.66374 15.6174 5.63912 15.5661 5.63066 15.5111C5.6222 15.456 5.63028 15.3997 5.65387 15.3492C5.66858 15.3188 5.68013 15.287 5.68832 15.2543L7.29426 9.14063C7.3284 9.01114 7.31521 8.87372 7.25709 8.75308C7.19896 8.63244 7.0997 8.5365 6.97715 8.4825L2.97426 6.72258C2.9168 6.69516 2.87035 6.64906 2.84249 6.59181C2.81463 6.53457 2.80702 6.46956 2.8209 6.40743C2.83478 6.3453 2.86933 6.28971 2.9189 6.24976C2.96847 6.20981 3.03013 6.18786 3.09379 6.1875H14.9063C14.9701 6.18739 15.0321 6.20899 15.0821 6.24878C15.132 6.28856 15.1669 6.34415 15.1811 6.4064C15.1952 6.46866 15.1878 6.53388 15.1599 6.59134C15.1321 6.6488 15.0856 6.69508 15.0279 6.72258H15.0258Z" fill="#212738"/>
</g>
</svg>
