<svg width="20" height="21" viewBox="0 0 20 21" fill="none" xmlns="http://www.w3.org/2000/svg">
<path fill-rule="evenodd" clip-rule="evenodd" d="M10 3.625C10.1658 3.625 10.3247 3.69085 10.4419 3.80806C10.5592 3.92527 10.625 4.08424 10.625 4.25V9.875H16.25C16.4158 9.875 16.5747 9.94085 16.6919 10.0581C16.8092 10.1753 16.875 10.3342 16.875 10.5C16.875 10.6658 16.8092 10.8247 16.6919 10.9419C16.5747 11.0592 16.4158 11.125 16.25 11.125H10.625V16.75C10.625 16.9158 10.5592 17.0747 10.4419 17.1919C10.3247 17.3092 10.1658 17.375 10 17.375C9.83424 17.375 9.67527 17.3092 9.55806 17.1919C9.44085 17.0747 9.375 16.9158 9.375 16.75V11.125H3.75C3.58424 11.125 3.42527 11.0592 3.30806 10.9419C3.19085 10.8247 3.125 10.6658 3.125 10.5C3.125 10.3342 3.19085 10.1753 3.30806 10.0581C3.42527 9.94085 3.58424 9.875 3.75 9.875H9.375V4.25C9.375 4.08424 9.44085 3.92527 9.55806 3.80806C9.67527 3.69085 9.83424 3.625 10 3.625Z" fill="#2F2F2F"/>
</svg>
