<svg width="22" height="22" viewBox="0 0 22 22" fill="none" xmlns="http://www.w3.org/2000/svg">
<circle cx="11" cy="11" r="10.5" fill="black" stroke="white"/>
<path d="M13.4714 6.52858L14.6667 5.33332C14.927 5.07297 15.3491 5.07297 15.6095 5.33332L16.6667 6.39051C16.927 6.65086 16.927 7.07297 16.6667 7.33332L15.4714 8.52858M13.4714 6.52858L9.39924 10.6008C9.22837 10.7717 9.10714 10.9858 9.04853 11.2202L8.47144 13.5286L10.7798 12.9515C11.0143 12.8929 11.2283 12.7717 11.3993 12.6008L15.4714 8.52858M13.4714 6.52858L15.4714 8.52858" stroke="white" stroke-linejoin="round"/>
<path d="M10.1381 6.19525H6.47146C5.73508 6.19525 5.13812 6.7922 5.13812 7.52858V15.5286C5.13812 16.265 5.73508 16.8619 6.47146 16.8619H14.4714C15.2078 16.8619 15.8048 16.265 15.8048 15.5286V11.8619" stroke="white" stroke-linecap="round" stroke-linejoin="round"/>
</svg>
