<svg width="24" height="24" viewBox="0 0 24 24" fill="none" xmlns="http://www.w3.org/2000/svg">
<path fill-rule="evenodd" clip-rule="evenodd" d="M17.2862 18.7005L20.2929 21.7071L21.7071 20.2929L3.70711 2.29291L2.29289 3.70712L5.02664 6.44087C4.84409 6.59074 4.66521 6.74737 4.49033 6.91076C4.14205 7.23615 3.76342 7.65688 3.10118 8.39273L2.38053 9.19346C2.23822 9.35157 2.11788 9.52814 2.02275 9.7184C1.30459 11.1547 1.30459 12.8453 2.02275 14.2817C2.11788 14.4719 2.23822 14.6485 2.38053 14.8066L3.10115 15.6073C3.76341 16.3432 4.14205 16.7639 4.49033 17.0893C8.03155 20.3979 13.2126 20.9349 17.2862 18.7005ZM14.6767 16.091L13.1424 14.5566C12.3082 14.7798 11.4248 14.7542 10.6019 14.4799C10.0912 14.3096 9.69037 13.9088 9.52011 13.3981C9.24582 12.5752 9.22024 11.6918 9.44338 10.8576L7.90906 9.32329C7.79428 9.52728 7.6981 9.74343 7.62275 9.9695C7.1834 11.2875 7.1834 12.7125 7.62275 14.0305C7.99207 15.1385 8.86151 16.0079 9.96949 16.3773C11.2875 16.8166 12.7125 16.8166 14.0305 16.3773C14.2566 16.3019 14.4727 16.2057 14.6767 16.091Z" fill="#BABBBE"/>
<path d="M20.8985 15.6076C20.5256 16.022 20.2426 16.3364 20.0044 16.5902L16.5969 13.1827C16.797 12.1151 16.7238 11.009 16.3773 9.9695C16.0079 8.86152 15.1385 7.99209 14.0305 7.62276C12.991 7.27625 11.8849 7.20303 10.8173 7.4031L8.08185 4.66765C11.8974 3.21518 16.3544 3.96288 19.5096 6.91076C19.8579 7.23615 20.2365 7.65688 20.8988 8.39273L21.6194 9.19346C21.7617 9.35157 21.8821 9.52814 21.9772 9.7184C22.6954 11.1547 22.6954 12.8453 21.9772 14.2817C21.8821 14.4719 21.7617 14.6485 21.6194 14.8066L20.8985 15.6076Z" fill="#BABBBE"/>
<path d="M14.4799 10.602C14.5479 10.8061 14.6007 11.014 14.6381 11.2239L12.7761 9.3619C12.986 9.39933 13.1939 9.45208 13.3981 9.52013C13.9088 9.69038 14.3096 10.0912 14.4799 10.602Z" fill="#BABBBE"/>
</svg>
