<svg width="25" height="24" viewBox="0 0 25 24" fill="none" xmlns="http://www.w3.org/2000/svg">
<path d="M11.1019 9.52011C12.0094 9.21761 12.9906 9.21761 13.8981 9.52011C14.4088 9.69037 14.8096 10.0912 14.9799 10.6019C15.2824 11.5094 15.2824 12.4906 14.9799 13.3981C14.8096 13.9088 14.4088 14.3096 13.8981 14.4799C12.9906 14.7824 12.0094 14.7824 11.1019 14.4799C10.5912 14.3096 10.1904 13.9088 10.0201 13.3981C9.71761 12.4906 9.71761 11.5094 10.0201 10.6019C10.1904 10.0912 10.5912 9.69037 11.1019 9.52011Z" fill="#BABBBE"/>
<path fill-rule="evenodd" clip-rule="evenodd" d="M4.99033 6.91074C9.21776 2.96107 15.7822 2.96107 20.0096 6.91074C20.3579 7.23614 20.7365 7.65686 21.3988 8.39272L22.1194 9.19344C22.2617 9.35155 22.3821 9.52813 22.4772 9.71839C23.1954 11.1547 23.1954 12.8453 22.4772 14.2816C22.3821 14.4719 22.2617 14.6485 22.1194 14.8066L21.3988 15.6073C20.7366 16.343 20.3579 16.7639 20.0096 17.0893C15.7822 21.039 9.21776 21.039 4.99033 17.0893C4.64205 16.7639 4.26341 16.3432 3.60115 15.6073L2.88053 14.8066C2.73822 14.6485 2.61788 14.4719 2.52275 14.2816C1.80459 12.8453 1.80459 11.1547 2.52275 9.71839C2.61788 9.52813 2.73822 9.35155 2.88053 9.19344L3.60118 8.39272C4.26342 7.65686 4.64205 7.23614 4.99033 6.91074ZM14.5305 7.62275C13.2125 7.1834 11.7875 7.1834 10.4695 7.62275C9.36151 7.99207 8.49207 8.86151 8.12275 9.96949C7.6834 11.2875 7.6834 12.7125 8.12275 14.0305C8.49207 15.1385 9.36151 16.0079 10.4695 16.3773C11.7875 16.8166 13.2125 16.8166 14.5305 16.3773C15.6385 16.0079 16.5079 15.1385 16.8773 14.0305C17.3166 12.7125 17.3166 11.2875 16.8773 9.96949C16.5079 8.86151 15.6385 7.99207 14.5305 7.62275Z" fill="#BABBBE"/>
</svg>
