<svg width="33" height="32" viewBox="0 0 33 32" fill="none" xmlns="http://www.w3.org/2000/svg">
<path d="M16.4997 1.33334C8.41298 1.33334 1.83398 7.91234 1.83398 16C1.83398 24.0873 8.41298 30.6667 16.4997 30.6667C24.5863 30.6667 31.1653 24.0873 31.1653 16C31.1653 7.91234 24.5863 1.33334 16.4997 1.33334ZM16.4997 29.18C9.23165 29.18 3.31865 23.268 3.31865 16C3.31865 8.73201 9.23165 2.82001 16.4997 2.82001C23.7677 2.82001 29.6807 8.73201 29.6807 16C29.6807 23.268 23.7677 29.18 16.4997 29.18Z" fill="black"/>
<path d="M16.4998 20.2567C14.4771 20.2567 12.5421 21.2247 11.3238 22.8457C11.2652 22.9235 11.2226 23.0122 11.1983 23.1066C11.174 23.2009 11.1686 23.2992 11.1823 23.3956C11.196 23.4921 11.2286 23.5849 11.2782 23.6688C11.3279 23.7526 11.3935 23.8259 11.4715 23.8843C11.5492 23.9434 11.6378 23.9865 11.7323 24.0111C11.8268 24.0357 11.9252 24.0414 12.0219 24.0278C12.1185 24.0141 12.2115 23.9815 12.2955 23.9317C12.3795 23.8819 12.4528 23.8159 12.5111 23.7377C13.4501 22.4887 14.9411 21.7433 16.4998 21.7433C18.0581 21.7433 19.5488 22.4883 20.4878 23.7377C20.557 23.8299 20.6466 23.9048 20.7497 23.9564C20.8528 24.008 20.9665 24.0349 21.0818 24.035C21.2371 24.035 21.3938 23.986 21.5275 23.8847C21.6054 23.8262 21.6711 23.753 21.7207 23.6691C21.7703 23.5852 21.8029 23.4924 21.8166 23.396C21.8303 23.2995 21.8249 23.2013 21.8006 23.1069C21.7763 23.0125 21.7337 22.9239 21.6751 22.846C20.4571 21.225 18.5225 20.2567 16.4998 20.2567ZM12.7311 14.537C12.6825 14.4522 12.6174 14.3779 12.5397 14.3185C12.462 14.2591 12.3732 14.2159 12.2786 14.1912C12.1839 14.1666 12.0853 14.161 11.9885 14.175C11.8917 14.1889 11.7986 14.222 11.7148 14.2723C10.0351 15.2567 8.84646 14.78 8.78279 14.7547C8.60346 14.6735 8.39922 14.6668 8.215 14.7362C8.03077 14.8056 7.88166 14.9453 7.80046 15.1247C7.71926 15.304 7.71263 15.5082 7.78201 15.6925C7.8514 15.8767 7.99113 16.0258 8.17046 16.107C8.21213 16.127 8.76713 16.3737 9.64613 16.3737C10.3911 16.3737 11.3695 16.196 12.4661 15.5523C12.5503 15.5031 12.6239 15.4378 12.6827 15.3601C12.7416 15.2825 12.7846 15.1939 12.8092 15.0996C12.8338 15.0053 12.8396 14.9071 12.8262 14.8105C12.8128 14.714 12.7805 14.6211 12.7311 14.537ZM24.2171 14.7547C24.1678 14.7727 22.9751 15.2623 21.2848 14.2723C21.2008 14.2225 21.1078 14.1897 21.0111 14.176C20.9144 14.1623 20.8159 14.168 20.7214 14.1926C20.6269 14.2172 20.5382 14.2603 20.4604 14.3194C20.3827 14.3786 20.3174 14.4525 20.2685 14.537C20.2191 14.621 20.1869 14.714 20.1735 14.8105C20.1601 14.907 20.1658 15.0052 20.1904 15.0995C20.215 15.1938 20.2579 15.2823 20.3167 15.36C20.3755 15.4377 20.4491 15.5031 20.5331 15.5523C21.6295 16.196 22.6075 16.3737 23.3525 16.3737C24.2318 16.3737 24.7865 16.127 24.8281 16.107C25.0048 16.0254 25.1421 15.8773 25.2102 15.695C25.2783 15.5126 25.2717 15.3108 25.1918 15.1333C25.1118 14.9547 24.9646 14.8148 24.7822 14.7439C24.5998 14.673 24.3967 14.6769 24.2171 14.7547Z" fill="black"/>
</svg>
